<?xml version="1.0" encoding="UTF-8"?>
<!DOCTYPE svg PUBLIC "-//W3C//DTD SVG 1.1//EN" "http://www.w3.org/Graphics/SVG/1.1/DTD/svg11.dtd">
<svg xmlns="http://www.w3.org/2000/svg" xml:space="preserve" width="300px" height="90px" version="1.1" style="shape-rendering:geometricPrecision; text-rendering:geometricPrecision; image-rendering:optimizeQuality; fill-rule:evenodd; clip-rule:evenodd"
viewBox="0 0 300 90"
 xmlns:xlink="http://www.w3.org/1999/xlink">
 <defs>
  <style type="text/css">
   <![CDATA[
    .fil0 {fill:blue}
    .fil1 {fill:black}
    .fil2 {fill:red}
    .fil3 {fill:#009933}
    .fil4 {fill:#643200}
    .fnt0 {font-weight:normal;font-size:18px;font-family:'Arial'}
    .fnt1 {font-style:italic;font-weight:normal;font-size:16px;font-family:'Arial'}
   ]]>
  </style>
 </defs>
 <g id="Слой_x0020_1">
  <metadata id="CorelCorpID_0Corel-Layer"/>
  <text x="45" y="21"  class="fil0 fnt0">+7 499 9384062</text>
  <text x="195" y="21"  class="fil1 fnt0">Москва</text>
  <text x="45" y="40"  class="fil0 fnt0">+7 812 4673964</text>
  <text x="195" y="40"  class="fil1 fnt0">С-Петербург</text>
  <text x="55" y="60"  class="fil0 fnt0">8 804 333 94 24</text>
  <text x="195" y="60"  class="fil2 fnt0">Россия</text>
  <text x="55" y="79"  class="fil3 fnt1">(звонок по России бесплатный)</text>
 <g>
   <path class="fil4" d="M26 59l5 21c4,1 6,-1 6,-3l0 0 -6 -19 0 0c0,-1 -4,0 -5,1zm1 -30l0 0 5 1c0,0 1,0 1,-1l0 0 0 0 5 -16 0 0 0 -1 -6 -3c-1,-1 -1,-1 -1,-1l-4 21 3 -21 -4 20c0,1 -1,1 -2,1 0,0 -4,-1 -5,-2 -4,5 -5,25 0,30 3,4 5,2 6,3l5 20c0,0 -1,0 -2,0 -5,0 -7,-2 -12,-4 -10,-16 -14,-29 -7,-54l6 -12c3,-1 8,-3 10,-3 4,0 5,0 5,1l-3 21zm4 29l6 19 -6 -19zm6 -45l-4 15 4 -15zm-7 60c0,1 0,3 1,2l4 -2c1,0 0,-1 0,-1l-5 1zm1 0l0 0 4 -1 0 -2c0,1 0,1 -1,2 0,0 -2,0 -3,1zm-4 -12l0 0c0,0 0,0 0,0 2,0 4,-1 5,-1l0 0c-1,0 -3,0 -5,1zm2 0l0 0 0 1c1,0 2,-1 3,-1l0 0c-1,-1 -2,0 -3,0zm-1 0l0 0 1 1 -2 1 0 -1 1 -1zm-11 2l0 0c-1,2 -2,3 -2,5 0,-4 2,-7 6,-8 -1,1 -3,2 -4,3zm-11 -12l0 0c1,6 2,9 5,14 0,-1 0,-2 0,-3 -3,-4 -3,-6 -5,-11zm16 -23l0 0c1,0 1,0 2,0 0,0 0,0 -1,0 -1,0 -1,0 -1,0zm0 0l0 0c-3,-1 -5,-3 -6,-6 0,2 1,3 3,5 1,0 2,1 3,1zm8 -6l0 0c2,1 4,1 5,1l0 -1c-1,1 -3,0 -5,0 -1,0 -1,0 0,0zm-2 3l0 0c0,1 5,1 6,1l0 -1 0 0 1 -2 -1 0 0 1c0,0 -6,-1 -6,-2l0 3 9 53c-1,1 -2,2 -5,2 2,0 5,0 5,-2l-9 -53z"/>
  </g>
 </g>
</svg>